<?xml version="1.0" encoding="UTF-8" standalone="no"?>
<!DOCTYPE svg PUBLIC "-//W3C//DTD SVG 1.1//EN" "http://www.w3.org/Graphics/SVG/1.1/DTD/svg11.dtd">
<svg width="100%" height="100%" viewBox="0 0 70 70" version="1.1" xmlns="http://www.w3.org/2000/svg" xmlns:xlink="http://www.w3.org/1999/xlink" xml:space="preserve" xmlns:serif="http://www.serif.com/" style="fill-rule:evenodd;clip-rule:evenodd;stroke-linejoin:round;stroke-miterlimit:1.41421;">
    <g transform="matrix(0.138889,0,0,0.138889,0,0)">
        <g transform="matrix(1.19721,0,0,1.19721,-1005.46,-696.12)">
            <g transform="matrix(1.26393,-0.294656,0.294656,1.26393,-491.794,150.095)">
                <path d="M1146.85,684.273C1146.65,688.073 1146,692.023 1144.9,696.123C1143.8,700.223 1142.45,703.923 1140.85,707.223C1139.25,710.523 1137.55,713.273 1135.75,715.473C1133.95,717.673 1132.25,718.773 1130.65,718.773C1128.45,718.573 1127.15,717.073 1126.75,714.273C1126.75,713.673 1127,712.723 1127.5,711.423C1128,710.123 1128.55,708.673 1129.15,707.073C1129.75,705.473 1130.3,703.873 1130.8,702.273C1131.3,700.673 1131.55,699.273 1131.55,698.073C1131.55,695.273 1130.9,692.923 1129.6,691.023C1128.3,689.123 1126.55,688.173 1124.35,688.173C1116.35,688.173 1110.25,693.149 1106.05,703.1C1101.85,713.052 1099.75,727.682 1099.75,746.992C1099.75,748.982 1099.85,750.176 1100.05,750.573L1121.05,750.573C1121.25,750.97 1121.35,751.765 1121.35,752.959C1121.35,754.752 1120.95,756.046 1120.15,756.84C1115.55,757.837 1111.9,758.684 1109.2,759.381C1106.5,760.077 1104.45,760.724 1103.05,761.321C1101.65,761.918 1100.8,762.565 1100.5,763.262C1100.2,763.959 1100.05,764.904 1100.05,766.098C1100.05,767.688 1100.1,769.28 1100.2,770.872C1100.3,772.464 1100.35,774.454 1100.35,776.842C1100.35,793.56 1095.8,807.012 1086.7,817.196C1077.6,827.381 1064.95,833.273 1048.75,834.873C1045.95,834.673 1043.05,833.873 1040.05,832.473C1037.05,831.073 1034.2,829.273 1031.5,827.073C1028.8,824.873 1026.45,822.423 1024.45,819.723C1022.45,817.023 1021.05,814.273 1020.25,811.473C1020.25,803.813 1021.85,796.507 1025.05,789.554C1028.25,782.601 1032.6,776.453 1038.1,771.111C1043.6,765.769 1050.1,761.435 1057.6,758.11C1065.1,754.785 1073.25,753.123 1082.05,753.123C1082.05,748.101 1081.55,743.18 1080.55,738.359C1079.55,733.539 1078.5,728.869 1077.4,724.349C1076.3,719.828 1075.25,715.409 1074.25,711.09C1073.25,706.771 1072.75,702.502 1072.75,698.284C1072.75,692.862 1073.85,687.489 1076.05,682.166C1078.25,676.842 1081.15,671.921 1084.75,667.402C1088.35,662.884 1092.55,659.017 1097.35,655.803C1102.15,652.589 1107.15,650.379 1112.35,649.173C1114.55,649.773 1117.5,651.523 1121.2,654.423C1124.9,657.323 1128.55,660.573 1132.15,664.173C1135.75,667.773 1138.95,671.423 1141.75,675.123C1144.55,678.823 1146.25,681.873 1146.85,684.273ZM1047.85,821.073C1052.65,819.073 1057.2,816.173 1061.5,812.373C1065.8,808.573 1069.55,804.273 1072.75,799.473C1075.95,794.673 1078.5,789.573 1080.4,784.173C1082.3,778.773 1083.25,773.473 1083.25,768.273C1079.25,768.873 1074.85,770.723 1070.05,773.823C1065.25,776.923 1060.75,780.623 1056.55,784.923C1052.35,789.223 1048.85,793.673 1046.05,798.273C1043.25,802.873 1041.85,806.873 1041.85,810.273C1041.85,814.673 1043.85,818.273 1047.85,821.073Z" style="fill:url(#_Linear1);fill-rule:nonzero;"/>
            </g>
            <g transform="matrix(1.55623,-0.247936,0.247936,1.55623,-874.901,-35.9309)">
                <path d="M1156.15,787.023C1161.15,795.623 1163.65,803.895 1163.65,811.838C1163.65,813.626 1163.5,815.265 1163.2,816.756C1162.9,818.246 1162.55,819.785 1162.15,821.373C1158.75,820.873 1155.2,820.623 1151.5,820.623C1147.8,820.623 1143.95,820.623 1139.95,820.623C1135.15,820.623 1130.3,820.623 1125.4,820.623C1120.5,820.623 1115.05,820.942 1109.05,821.579C1103.05,822.217 1096.35,823.067 1088.95,824.129C1081.55,825.192 1072.95,826.573 1063.15,828.273C1058.55,826.673 1053.95,823.523 1049.35,818.823C1044.75,814.123 1040.45,808.473 1036.45,801.873C1038.45,797.473 1040.95,792.023 1043.95,785.523C1046.95,779.023 1050.45,771.123 1054.45,761.823C1058.45,752.523 1062.9,741.623 1067.8,729.123C1072.7,716.623 1077.95,702.173 1083.55,685.773C1087.15,674.973 1090.25,665.473 1092.85,657.273C1095.45,649.073 1097.8,641.123 1099.9,633.423C1102,625.723 1104.05,617.673 1106.05,609.273C1108.05,600.873 1110.25,591.173 1112.65,580.173C1120.65,581.773 1127.6,584.723 1133.5,589.023C1139.4,593.323 1145.05,599.473 1150.45,607.473C1148.85,610.07 1146.75,614.266 1144.15,620.061C1141.55,625.856 1138.5,632.901 1135,641.195C1131.5,649.488 1127.65,658.881 1123.45,669.374C1119.25,679.866 1114.85,691.107 1110.25,703.098C1105.85,714.888 1101.55,725.98 1097.35,736.372C1093.15,746.764 1089.4,756.157 1086.1,764.551C1082.8,772.945 1080.15,780.139 1078.15,786.134C1076.15,792.13 1075.15,796.626 1075.15,799.623C1078.35,799.623 1081.25,799.523 1083.85,799.323C1086.45,799.123 1089.15,798.773 1091.95,798.273C1094.75,797.773 1097.8,797.173 1101.1,796.473C1104.4,795.773 1108.35,794.823 1112.95,793.623C1116.95,792.623 1120.65,791.773 1124.05,791.073C1127.45,790.373 1130.8,789.773 1134.1,789.273C1137.4,788.773 1140.8,788.373 1144.3,788.073C1147.8,787.773 1151.75,787.423 1156.15,787.023Z" style="fill:url(#_Linear2);fill-rule:nonzero;"/>
            </g>
        </g>
    </g>
    <defs>
        <linearGradient id="_Linear1" x1="0" y1="0" x2="1" y2="0" gradientUnits="userSpaceOnUse" gradientTransform="matrix(146.993,245.407,-245.407,146.993,979.49,618.2)"><stop offset="0" style="stop-color:rgb(137,72,196);stop-opacity:1"/><stop offset="1" style="stop-color:rgb(103,59,183);stop-opacity:1"/></linearGradient>
        <linearGradient id="_Linear2" x1="0" y1="0" x2="1" y2="0" gradientUnits="userSpaceOnUse" gradientTransform="matrix(135.1,193.007,-193.007,135.1,1062.3,605.413)"><stop offset="0" style="stop-color:rgb(137,72,196);stop-opacity:1"/><stop offset="1" style="stop-color:rgb(103,59,183);stop-opacity:1"/></linearGradient>
    </defs>
</svg>
